<svg width="18" height="22" viewBox="0 0 18 22" fill="none" xmlns="http://www.w3.org/2000/svg">
<g clip-path="url(#clip0_110_185)">
<path d="M0.331553 14.6124C0.630972 14.7826 0.930391 14.9532 1.22981 15.1235C1.30954 15.1691 1.38962 15.2143 1.46935 15.2599C1.54107 15.3007 1.62985 15.3745 1.70888 15.3964C1.78792 15.4184 1.64064 15.3261 1.72107 15.4041C1.76911 15.4504 1.82238 15.4936 1.86207 15.5479C1.90525 15.6064 1.93797 15.6844 1.96235 15.7794C1.97 15.8093 1.97627 15.8396 1.98184 15.8699C1.97349 15.7989 1.97209 15.7909 1.97766 15.8456C1.97488 15.9093 1.98149 15.9758 1.98254 16.0398C1.98672 16.3789 1.99124 16.718 1.99542 17.0568C1.9989 17.3298 2.23322 17.5919 2.51766 17.5791C2.80211 17.5662 3.04374 17.3496 3.03991 17.0568C3.03503 16.6731 3.04026 16.2874 3.02529 15.904C3.01206 15.5688 2.91561 15.2342 2.71821 14.9598C2.50235 14.6601 2.22312 14.487 1.90664 14.307C1.55743 14.1082 1.20788 13.9094 0.85867 13.7106C0.613564 13.571 0.287684 13.6525 0.144241 13.8979C0.0025388 14.1399 0.0857499 14.4724 0.331553 14.6124Z" fill="white"/>
<path d="M0.326417 12.2952C0.951716 12.6813 1.57736 13.0671 2.20266 13.4532C2.49582 13.6342 2.78897 13.8149 3.08212 13.996C3.23845 14.0924 3.39477 14.1888 3.55108 14.2856C3.62942 14.334 3.70776 14.3817 3.78574 14.4305C3.79967 14.4392 3.96157 14.5624 3.85642 14.4698C3.90516 14.5126 3.95739 14.5565 3.99603 14.6091C3.94346 14.5377 4.07576 14.7713 4.04164 14.6916C4.06741 14.7518 4.07576 14.8166 4.09178 14.8793C4.05348 14.7275 4.08656 14.9322 4.08691 14.9795C4.08969 15.3214 4.09248 15.6633 4.09526 16.0052C4.10118 16.7346 4.1071 17.464 4.11337 18.1931C4.11545 18.466 4.35186 18.7278 4.63561 18.7153C4.91936 18.7028 5.16029 18.4859 5.15785 18.1931C5.15298 17.6005 5.1481 17.0079 5.14323 16.4153C5.14079 16.1191 5.13836 15.8228 5.13592 15.5265C5.13348 15.2302 5.1495 14.9322 5.10493 14.6401C5.06037 14.348 4.9211 14.0896 4.73449 13.8706C4.5705 13.6781 4.34942 13.5514 4.13704 13.4201C3.61897 13.1005 3.10127 12.7809 2.58321 12.4613C2.00665 12.1054 1.43009 11.7496 0.853534 11.3938C0.61365 11.2455 0.279067 11.3419 0.139105 11.5811C-0.00677498 11.8304 0.0858364 12.1472 0.326417 12.2955V12.2952Z" fill="white"/>
<path d="M0.318116 9.70639C1.83541 10.6447 3.35305 11.583 4.87033 12.5209C5.05764 12.6365 5.2446 12.7525 5.43191 12.8681C5.52069 12.9227 5.60913 12.9777 5.69791 13.0324C5.7463 13.0623 5.7947 13.0985 5.84588 13.1236C5.9263 13.1629 5.77485 13.046 5.86886 13.141C6.00499 13.2789 6.05025 13.3057 6.13346 13.4888C6.14634 13.517 6.17872 13.618 6.1923 13.6744C6.20239 13.7158 6.2111 13.758 6.21702 13.8001C6.20483 13.7144 6.21284 13.7862 6.21423 13.8307C6.24592 14.6642 6.2212 15.5043 6.22468 16.3385C6.22886 17.3496 6.23268 18.3607 6.23686 19.3717C6.23791 19.645 6.4764 19.9065 6.75911 19.894C7.04181 19.8814 7.28239 19.6645 7.28135 19.3717C7.27404 17.5425 7.29214 15.7108 7.25976 13.8819C7.25245 13.4711 7.13373 13.0588 6.88932 12.7257C6.62506 12.365 6.27446 12.1609 5.89984 11.9294C5.10185 11.4361 4.30352 10.9424 3.50553 10.449C2.61877 9.90066 1.732 9.35231 0.845233 8.80395C0.605349 8.65563 0.270417 8.75208 0.130804 8.99126C-0.0150757 9.24055 0.0775357 9.55703 0.318116 9.70569V9.70639Z" fill="white"/>
<path d="M0.378622 7.12341C2.48118 8.38481 4.58371 9.64655 6.68592 10.9079C6.95365 11.0684 7.22143 11.2293 7.48916 11.3898C7.60823 11.4612 7.72696 11.5329 7.84603 11.6039C7.8798 11.6241 7.91354 11.6436 7.94661 11.6648C7.96541 11.677 8.05802 11.7484 8.01346 11.7105C7.96646 11.6708 8.08309 11.7766 8.09563 11.7891C8.13218 11.8257 8.16909 11.864 8.20007 11.9051C8.16944 11.8643 8.24185 11.9747 8.25091 11.9904C8.29269 12.0617 8.3087 12.091 8.3275 12.1488C8.34421 12.2003 8.35953 12.2525 8.37137 12.3058C8.38077 12.3483 8.38773 12.4489 8.38251 12.3507C8.38739 12.4402 8.38982 12.5279 8.39052 12.6174C8.40131 13.8464 8.4191 15.0751 8.43338 16.3041C8.44939 17.6954 8.46572 19.0866 8.48174 20.4775C8.48487 20.7505 8.71953 21.0127 9.00398 20.9998C9.28843 20.9869 9.52971 20.7703 9.52623 20.4775C9.49698 17.9502 9.46773 15.4229 9.43814 12.8956C9.43187 12.342 9.40959 11.8086 9.07118 11.339C8.73276 10.8693 8.27737 10.6444 7.8077 10.3627C6.72665 9.71409 5.64564 9.06546 4.5646 8.41684C3.34462 7.685 2.12501 6.95316 0.905044 6.22098C0.663071 6.07579 0.331618 6.16701 0.190613 6.40829C0.0496068 6.64956 0.135255 6.97719 0.377926 7.12272L0.378622 7.12341Z" fill="white"/>
<path d="M0.25988 16.493C0.310016 16.5219 0.360501 16.5512 0.410637 16.5801C0.470521 16.6184 0.535279 16.6389 0.604911 16.6421C0.674196 16.6577 0.743828 16.6546 0.813113 16.6327C0.881004 16.6166 0.940192 16.5853 0.990675 16.5393C1.04743 16.5024 1.09234 16.4537 1.12507 16.3928C1.18913 16.2716 1.22116 16.1247 1.17764 15.9903C1.13586 15.8611 1.05752 15.7473 0.937755 15.6783C0.887619 15.6494 0.837136 15.6202 0.787 15.5913C0.727116 15.553 0.662355 15.5325 0.592722 15.5293C0.523438 15.5137 0.453809 15.5168 0.384525 15.5387C0.316631 15.5547 0.257445 15.5861 0.206961 15.632C0.150211 15.6689 0.105298 15.7177 0.0725706 15.7786C0.00850885 15.8998 -0.0235224 16.0467 0.0199979 16.1811C0.0617773 16.3103 0.140112 16.4241 0.25988 16.493Z" fill="white"/>
<path d="M2.30126 5.8444C4.36759 7.0842 6.43429 8.32401 8.50063 9.56417C9.08415 9.91407 9.66732 10.2643 10.2508 10.6142C10.4928 10.7594 10.8243 10.6682 10.9653 10.4269C11.1063 10.1856 11.0206 9.85801 10.778 9.71248C8.71162 8.47268 6.64493 7.23287 4.57858 5.99271C3.99506 5.64281 3.4119 5.29256 2.82838 4.94266C2.58641 4.79747 2.25496 4.88869 2.11395 5.12997C1.97295 5.37124 2.05859 5.69887 2.30126 5.8444Z" fill="white"/>
<path d="M4.29736 4.55679C6.39538 5.81539 8.49306 7.07435 10.5911 8.33296C11.1847 8.68913 11.7787 9.0453 12.3723 9.40182C12.6143 9.547 12.9457 9.45578 13.0867 9.2145C13.2309 8.968 13.1421 8.64561 12.8994 8.50007C10.8014 7.24147 8.7037 5.98251 6.60567 4.7239C6.01206 4.36774 5.41809 4.01158 4.82448 3.65506C4.5825 3.50988 4.25105 3.60109 4.11005 3.84237C3.96904 4.08365 4.05469 4.41126 4.29736 4.55679Z" fill="white"/>
<path d="M6.36816 3.20719C8.50031 4.48667 10.6328 5.76582 12.7649 7.04532C13.3701 7.40845 13.9748 7.77124 14.5799 8.13437C14.8219 8.27956 15.1533 8.18834 15.2943 7.94706C15.4354 7.70578 15.3497 7.37816 15.107 7.23263C12.9749 5.95313 10.8424 4.67399 8.71025 3.3945C8.10514 3.03136 7.50038 2.66858 6.89528 2.30545C6.6533 2.16027 6.32185 2.25148 6.18085 2.49276C6.03984 2.73404 6.12549 3.06166 6.36816 3.20719Z" fill="white"/>
<path d="M8.36955 1.96159C10.5104 3.24631 12.6516 4.53066 14.7925 5.81538C15.407 6.18409 16.0215 6.55279 16.636 6.9215C16.8779 7.06668 17.2094 6.97546 17.3504 6.73418C17.4914 6.49291 17.4058 6.16529 17.1631 6.01975C15.0222 4.73504 12.8811 3.45068 10.7402 2.16596C10.1257 1.79725 9.51118 1.42855 8.89667 1.05984C8.6547 0.91466 8.32325 1.00588 8.18224 1.24716C8.0381 1.49365 8.12688 1.81606 8.36955 1.96159Z" fill="white"/>
<path d="M11.3572 12.4853C13.4761 11.2051 15.5946 9.92453 17.7136 8.64434C17.9548 8.49846 18.0447 8.17571 17.9009 7.92991C17.7571 7.68411 17.4288 7.59602 17.1864 7.7426C15.0675 9.02279 12.9489 10.3033 10.83 11.5835C10.5888 11.7294 10.4989 12.0522 10.6427 12.298C10.7865 12.5438 11.1148 12.6319 11.3572 12.4853Z" fill="white"/>
<path d="M11.3572 14.9389C13.4761 13.6587 15.5946 12.3781 17.7136 11.098C17.9548 10.9521 18.0447 10.6293 17.9009 10.3835C17.7571 10.1377 17.4288 10.0496 17.1864 10.1962C15.0675 11.4764 12.9489 12.7569 10.83 14.0371C10.5888 14.183 10.4989 14.5058 10.6427 14.7516C10.7865 14.9974 11.1148 15.0855 11.3572 14.9389Z" fill="white"/>
<path d="M11.3572 17.4316C13.4761 16.1514 15.5946 14.8708 17.7136 13.5906C17.9548 13.4447 18.0447 13.122 17.9009 12.8762C17.7571 12.6304 17.4288 12.5423 17.1864 12.6889C15.0675 13.9691 12.9489 15.2496 10.83 16.5298C10.5888 16.6757 10.4989 16.9984 10.6427 17.2442C10.7865 17.49 11.1148 17.5781 11.3572 17.4316Z" fill="white"/>
<path d="M11.3572 19.9989C13.4761 18.7187 15.5946 17.4382 17.7136 16.158C17.9548 16.0121 18.0447 15.6894 17.9009 15.4436C17.7571 15.1978 17.4288 15.1097 17.1864 15.2563C15.0675 16.5365 12.9489 17.817 10.83 19.0972C10.5888 19.2431 10.4989 19.5658 10.6427 19.8116C10.7865 20.0574 11.1148 20.1455 11.3572 19.9989Z" fill="white"/>
</g>
<defs>
<clipPath id="clip0_110_185">
<rect width="18" height="20.0193" fill="white" transform="translate(0 0.990234)"/>
</clipPath>
</defs>
</svg>
