<svg width="8" height="8" viewBox="0 0 8 8" fill="none" xmlns="http://www.w3.org/2000/svg">
<path d="M3.76317 5.09675C3.74884 5.11259 3.73548 5.12929 3.72317 5.14675C3.71056 5.16533 3.70047 5.18551 3.69317 5.20675C3.68356 5.22564 3.67682 5.24587 3.67317 5.26675C3.67154 5.28894 3.67154 5.31122 3.67317 5.33341C3.67205 5.37714 3.68118 5.42052 3.69984 5.46008C3.71481 5.50145 3.73869 5.53901 3.7698 5.57012C3.80091 5.60123 3.83847 5.62511 3.87984 5.64008C3.91974 5.65772 3.96288 5.66683 4.00651 5.66683C4.05013 5.66683 4.09327 5.65772 4.13317 5.64008C4.17454 5.62511 4.2121 5.60123 4.24321 5.57012C4.27432 5.53901 4.2982 5.50145 4.31317 5.46008C4.32797 5.41955 4.33477 5.37653 4.33317 5.33341C4.33343 5.28955 4.32502 5.24606 4.30843 5.20545C4.29184 5.16483 4.2674 5.12789 4.23651 5.09675C4.20552 5.06551 4.16865 5.04071 4.12803 5.02378C4.08741 5.00686 4.04384 4.99815 3.99984 4.99815C3.95583 4.99815 3.91227 5.00686 3.87165 5.02378C3.83103 5.04071 3.79416 5.06551 3.76317 5.09675ZM3.99984 0.666748C3.34057 0.666748 2.6961 0.862245 2.14794 1.22852C1.59977 1.59479 1.17253 2.11538 0.92024 2.72447C0.667948 3.33356 0.601937 4.00378 0.730554 4.65038C0.859172 5.29699 1.17664 5.89093 1.64282 6.3571C2.10899 6.82328 2.70293 7.14075 3.34954 7.26937C3.99614 7.39798 4.66636 7.33197 5.27545 7.07968C5.88454 6.82739 6.40513 6.40015 6.7714 5.85198C7.13767 5.30382 7.33317 4.65935 7.33317 4.00008C7.33317 3.56234 7.24695 3.12889 7.07944 2.72447C6.91192 2.32005 6.66639 1.95259 6.35686 1.64306C6.04733 1.33353 5.67987 1.088 5.27545 0.920483C4.87103 0.752967 4.43758 0.666748 3.99984 0.666748ZM3.99984 6.66675C3.47242 6.66675 2.95685 6.51035 2.51832 6.21733C2.07979 5.92432 1.73799 5.50784 1.53616 5.02057C1.33433 4.5333 1.28152 3.99712 1.38441 3.47984C1.48731 2.96256 1.74128 2.4874 2.11422 2.11446C2.48716 1.74152 2.96232 1.48755 3.4796 1.38465C3.99688 1.28176 4.53306 1.33457 5.02033 1.5364C5.5076 1.73824 5.92407 2.08003 6.21709 2.51856C6.51011 2.95709 6.6665 3.47266 6.6665 4.00008C6.6665 4.70732 6.38555 5.3856 5.88546 5.8857C5.38536 6.3858 4.70708 6.66675 3.99984 6.66675ZM3.99984 2.33341C3.82419 2.3333 3.65162 2.37945 3.49948 2.46723C3.34733 2.555 3.22099 2.6813 3.13317 2.83341C3.10905 2.87135 3.09286 2.91378 3.08556 2.95814C3.07827 3.0025 3.08002 3.04788 3.09071 3.09154C3.10141 3.13521 3.12083 3.17626 3.1478 3.21223C3.17477 3.24819 3.20874 3.27833 3.24766 3.30083C3.28658 3.32333 3.32965 3.33772 3.37428 3.34314C3.41891 3.34856 3.46417 3.3449 3.50735 3.33237C3.55053 3.31985 3.59072 3.29872 3.62552 3.27025C3.66032 3.24179 3.689 3.20658 3.70984 3.16675C3.73921 3.11588 3.78149 3.07368 3.83242 3.04441C3.88335 3.01514 3.9411 2.99985 3.99984 3.00008C4.08824 3.00008 4.17303 3.0352 4.23554 3.09771C4.29805 3.16022 4.33317 3.24501 4.33317 3.33341C4.33317 3.42182 4.29805 3.5066 4.23554 3.56912C4.17303 3.63163 4.08824 3.66675 3.99984 3.66675C3.91143 3.66675 3.82665 3.70187 3.76414 3.76438C3.70162 3.82689 3.66651 3.91168 3.66651 4.00008V4.33341C3.66651 4.42182 3.70162 4.5066 3.76414 4.56912C3.82665 4.63163 3.91143 4.66675 3.99984 4.66675C4.08824 4.66675 4.17303 4.63163 4.23554 4.56912C4.29805 4.5066 4.33317 4.42182 4.33317 4.33341V4.27341C4.55363 4.19342 4.73896 4.03849 4.85676 3.8357C4.97457 3.63292 5.01735 3.39518 4.97764 3.16404C4.93792 2.93291 4.81824 2.72309 4.6395 2.57125C4.46077 2.41942 4.23435 2.33523 3.99984 2.33341Z" fill="#BFBFBF"/>
</svg>
