<svg width="22" height="22" viewBox="0 0 22 22" fill="none" xmlns="http://www.w3.org/2000/svg">
<g clip-path="url(#clip0_110_214)">
<path fill-rule="evenodd" clip-rule="evenodd" d="M11.0003 0.458496C8.38888 0.459851 5.86313 1.38475 3.87464 3.06781C1.88615 4.75087 0.564588 7.08234 0.146259 9.64533C-0.27207 12.2083 0.24011 14.8357 1.59122 17.0577C2.94234 19.2796 5.04428 20.9513 7.5212 21.7737C8.06764 21.8751 8.27347 21.5365 8.27347 21.2485C8.27347 20.9605 8.26254 20.1256 8.2589 19.2128C5.19879 19.8738 4.55216 17.9214 4.55216 17.9214C4.05307 16.6537 3.33176 16.3204 3.33176 16.3204C2.33358 15.643 3.40645 15.6557 3.40645 15.6557C4.51209 15.7336 5.09315 16.7841 5.09315 16.7841C6.07312 18.4557 7.66691 17.9722 8.29351 17.6896C8.39187 16.9815 8.67785 16.4997 8.99297 16.2262C6.54852 15.9509 3.98021 15.0128 3.98021 10.8218C3.96506 9.7349 4.3707 8.68379 5.11319 7.88595C5.00025 7.61066 4.6232 6.49863 5.22065 4.98814C5.22065 4.98814 6.14415 4.69474 8.24616 6.10923C10.0491 5.61898 11.9514 5.61898 13.7544 6.10923C15.8545 4.69474 16.7762 4.98814 16.7762 4.98814C17.3755 6.495 16.9984 7.60704 16.8855 7.88595C17.6303 8.68392 18.0368 9.73686 18.0203 10.8254C18.0203 15.0254 15.4465 15.9509 12.9984 16.2208C13.3919 16.5613 13.7434 17.226 13.7434 18.2474C13.7434 19.7108 13.7307 20.8881 13.7307 21.2485C13.7307 21.5401 13.9292 21.8806 14.4866 21.7737C16.9638 20.9512 19.0659 19.2792 20.417 17.0569C21.7681 14.8345 22.28 12.2068 21.8612 9.64354C21.4424 7.08032 20.1202 4.74882 18.1311 3.06605C16.1419 1.38328 13.6156 0.458992 11.0039 0.458496H11.0003Z" fill="white"/>
<path d="M7.35897 18.3108C7.35897 18.3995 7.25697 18.4756 7.12582 18.4774C6.99467 18.4792 6.88721 18.4068 6.88721 18.318C6.88721 18.2293 6.98921 18.1532 7.12035 18.1514C7.2515 18.1496 7.35897 18.2202 7.35897 18.3108Z" fill="white"/>
<path d="M8.19678 18.1714C8.21317 18.2602 8.1221 18.3525 7.99095 18.3743C7.8598 18.396 7.74505 18.3435 7.72865 18.2565C7.71226 18.1696 7.80698 18.0754 7.93448 18.0519C8.06199 18.0283 8.18038 18.0827 8.19678 18.1714Z" fill="white"/>
<path d="M6.45907 18.2494C6.43175 18.3345 6.30789 18.3725 6.18403 18.3363C6.06017 18.3001 5.9782 18.1986 6.00188 18.1117C6.02556 18.0248 6.15124 17.9849 6.27692 18.0248C6.40261 18.0646 6.48275 18.1606 6.45907 18.2494Z" fill="white"/>
<path d="M5.6339 17.8943C5.57379 17.9613 5.45175 17.9432 5.35157 17.8526C5.25139 17.7621 5.2277 17.6389 5.28781 17.5737C5.34792 17.5085 5.46996 17.5266 5.57379 17.6154C5.67761 17.7041 5.69765 17.8291 5.6339 17.8943Z" fill="white"/>
<path d="M5.04555 17.2858C4.97815 17.3329 4.86339 17.2858 4.79964 17.1916C4.78201 17.1747 4.76799 17.1545 4.75842 17.1321C4.74884 17.1097 4.7439 17.0856 4.7439 17.0612C4.7439 17.0369 4.74884 17.0128 4.75842 16.9904C4.76799 16.968 4.78201 16.9477 4.79964 16.9308C4.86703 16.8855 4.9818 16.9308 5.04555 17.0232C5.1093 17.1155 5.11112 17.2387 5.04555 17.2858Z" fill="white"/>
<path d="M4.61204 16.6572C4.57432 16.6761 4.53116 16.6814 4.48996 16.6721C4.44876 16.6629 4.41207 16.6397 4.38618 16.6065C4.31514 16.5304 4.30056 16.4254 4.3552 16.3783C4.40985 16.3312 4.50822 16.3529 4.57926 16.429C4.65029 16.5051 4.66669 16.6101 4.61204 16.6572Z" fill="white"/>
<path d="M4.16568 16.1626C4.142 16.2169 4.05457 16.2332 3.98353 16.1952C3.91249 16.1571 3.85968 16.0865 3.88518 16.0304C3.91068 15.9742 3.99629 15.9597 4.06733 15.9978C4.13836 16.0358 4.193 16.1082 4.16568 16.1626Z" fill="white"/>
</g>
<defs>
<clipPath id="clip0_110_214">
<rect width="22" height="22" fill="white"/>
</clipPath>
</defs>
</svg>
