<svg width="36" height="40" viewBox="0 0 36 40" fill="none" xmlns="http://www.w3.org/2000/svg">
<g clip-path="url(#clip0_110_378)">
<path d="M0.646267 26.5441C1.22971 26.8758 1.81316 27.2083 2.39661 27.54C2.55197 27.6289 2.70801 27.7171 2.86337 27.806C3.00313 27.8853 3.17613 28.0292 3.33013 28.0719C3.48414 28.1146 3.19716 27.9349 3.35388 28.0868C3.4475 28.1771 3.5513 28.2612 3.62864 28.367C3.71277 28.481 3.77654 28.633 3.82403 28.8182C3.83895 28.8765 3.85117 28.9355 3.86202 28.9946C3.84574 28.8562 3.84303 28.8406 3.85388 28.9471C3.84845 29.0712 3.86134 29.2008 3.86338 29.3256C3.87152 29.9864 3.88034 30.6472 3.88848 31.3073C3.89526 31.8392 4.35185 32.3501 4.90612 32.325C5.4604 32.2999 5.93123 31.8779 5.92377 31.3073C5.91427 30.5597 5.92445 29.808 5.89528 29.061C5.86949 28.4077 5.68157 27.7558 5.2969 27.2211C4.87627 26.637 4.33217 26.2998 3.71548 25.9491C3.03502 25.5617 2.35387 25.1743 1.67341 24.7869C1.19579 24.5149 0.560784 24.6736 0.281271 25.1519C0.00515001 25.6234 0.167295 26.2713 0.646267 26.5441Z" fill="white"/>
<path d="M0.636201 22.0283C1.85466 22.7807 3.0738 23.5324 4.29226 24.2848C4.86349 24.6376 5.43473 24.9897 6.00597 25.3425C6.31058 25.5304 6.6152 25.7183 6.91979 25.9069C7.07243 26.0012 7.22508 26.0942 7.37705 26.1891C7.40419 26.2061 7.71966 26.4463 7.51477 26.2658C7.60975 26.3493 7.71151 26.4347 7.78682 26.5372C7.68438 26.3981 7.94218 26.8533 7.87569 26.698C7.9259 26.8153 7.94218 26.9415 7.97339 27.0636C7.89876 26.7678 7.96321 27.1668 7.96389 27.259C7.96932 27.9252 7.97475 28.5915 7.98017 29.2577C7.99171 30.679 8.00324 32.1003 8.01545 33.5209C8.01952 34.0528 8.48018 34.563 9.0331 34.5386C9.58601 34.5142 10.0555 34.0915 10.0507 33.5209C10.0412 32.3662 10.0317 31.2116 10.0222 30.0569C10.0175 29.4795 10.0127 28.9022 10.008 28.3248C10.0033 27.7475 10.0345 27.1668 9.94762 26.5976C9.86078 26.0284 9.58941 25.525 9.22577 25.0982C8.90623 24.7231 8.47543 24.4761 8.06158 24.2203C7.05208 23.5975 6.04328 22.9747 5.03378 22.3519C3.9103 21.6586 2.78682 20.9652 1.66334 20.2719C1.19591 19.9829 0.543935 20.1708 0.271206 20.6369C-0.0130559 21.1226 0.167407 21.74 0.636201 22.029V22.0283Z" fill="white"/>
<path d="M0.620088 16.9848C3.57668 18.8131 6.53396 20.6415 9.49053 22.4692C9.85552 22.6944 10.2198 22.9204 10.5848 23.1456C10.7578 23.2521 10.9302 23.3593 11.1032 23.4658C11.1975 23.5242 11.2918 23.5947 11.3915 23.6436C11.5482 23.7202 11.2531 23.4923 11.4363 23.6775C11.7015 23.9461 11.7897 23.9984 11.9519 24.3552C11.977 24.4102 12.0401 24.6069 12.0665 24.7168C12.0862 24.7976 12.1032 24.8797 12.1147 24.9618C12.0909 24.7949 12.1066 24.9346 12.1093 25.0215C12.171 26.6456 12.1228 28.2827 12.1296 29.9082C12.1378 31.8783 12.1452 33.8485 12.1534 35.8187C12.1554 36.3512 12.6201 36.8607 13.171 36.8363C13.7219 36.8119 14.1907 36.3892 14.1886 35.8187C14.1744 32.2542 14.2097 28.685 14.1466 25.1212C14.1323 24.3206 13.901 23.5174 13.4247 22.8681C12.9098 22.1653 12.2266 21.7677 11.4966 21.3165C9.94168 20.3552 8.38604 19.3932 6.83108 18.4319C5.10315 17.3633 3.37519 16.2948 1.64723 15.2263C1.17979 14.9373 0.527143 15.1252 0.255093 15.5913C-0.0291689 16.077 0.151294 16.6937 0.620088 16.9834V16.9848Z" fill="white"/>
<path d="M0.737979 11.9506C4.83501 14.4086 8.93202 16.8672 13.0284 19.3252C13.5501 19.6379 14.0719 19.9514 14.5936 20.2641C14.8256 20.4032 15.0569 20.543 15.289 20.6814C15.3548 20.7207 15.4205 20.7587 15.485 20.8001C15.5216 20.8238 15.7021 20.9629 15.6152 20.889C15.5236 20.8116 15.7509 21.0179 15.7753 21.0423C15.8466 21.1135 15.9185 21.1881 15.9789 21.2682C15.9192 21.1888 16.0603 21.4039 16.0779 21.4344C16.1593 21.5735 16.1905 21.6305 16.2272 21.7431C16.2597 21.8435 16.2896 21.9453 16.3127 22.0491C16.331 22.1318 16.3445 22.3279 16.3344 22.1366C16.3439 22.3109 16.3486 22.4819 16.35 22.6563C16.371 25.0511 16.4057 27.4453 16.4335 29.8402C16.4647 32.5512 16.4965 35.2622 16.5277 37.9725C16.5338 38.5044 16.9911 39.0152 17.5454 38.9901C18.0996 38.965 18.5698 38.5431 18.563 37.9725C18.506 33.0478 18.449 28.1231 18.3914 23.1983C18.3791 22.1196 18.3357 21.0803 17.6763 20.1651C17.0169 19.2499 16.1295 18.8116 15.2143 18.2628C13.1078 16.9988 11.0013 15.7349 8.89477 14.471C6.51752 13.045 4.14098 11.6189 1.76376 10.1922C1.29226 9.90926 0.646388 10.087 0.371624 10.5572C0.0968597 11.0273 0.263753 11.6657 0.736622 11.9493L0.737979 11.9506Z" fill="white"/>
<path d="M0.506647 30.2083C0.604341 30.2646 0.702717 30.3216 0.800411 30.3779C0.917101 30.4525 1.04329 30.4926 1.17897 30.4987C1.31398 30.5292 1.44967 30.5231 1.58468 30.4804C1.71697 30.4492 1.8323 30.3881 1.93067 30.2985C2.04126 30.2266 2.12878 30.1317 2.19255 30.0129C2.31738 29.7768 2.3798 29.4905 2.29499 29.2287C2.21358 28.977 2.06093 28.7551 1.82755 28.6208C1.72986 28.5645 1.63149 28.5075 1.53379 28.4512C1.4171 28.3766 1.29091 28.3365 1.15522 28.3304C1.02022 28.2999 0.884536 28.306 0.749529 28.3487C0.617232 28.3799 0.501901 28.441 0.403528 28.5306C0.292944 28.6025 0.205428 28.6975 0.141655 28.8162C0.0168245 29.0523 -0.0455917 29.3386 0.039212 29.6004C0.120623 29.8521 0.273267 30.074 0.506647 30.2083Z" fill="white"/>
<path d="M4.48442 9.4593C8.51087 11.8752 12.538 14.2911 16.5645 16.7076C17.7016 17.3895 18.8379 18.072 19.975 18.7538C20.4465 19.0367 21.0924 18.8589 21.3671 18.3888C21.6419 17.9186 21.475 17.2802 21.0021 16.9967C16.9756 14.5808 12.9485 12.1649 8.922 9.74831C7.78495 9.06649 6.64861 8.38399 5.51156 7.70217C5.04006 7.41926 4.39419 7.59701 4.11943 8.06716C3.84466 8.53732 4.01156 9.17572 4.48442 9.4593Z" fill="white"/>
<path d="M8.37407 6.94975C12.4623 9.40228 16.5498 11.8555 20.638 14.308C21.7948 15.002 22.9522 15.6961 24.1089 16.3908C24.5804 16.6737 25.2263 16.4959 25.501 16.0258C25.7819 15.5455 25.6089 14.9172 25.136 14.6336C21.0478 12.1811 16.9603 9.72792 12.8721 7.2754C11.7153 6.58139 10.5579 5.88736 9.40121 5.19265C8.9297 4.90974 8.28384 5.08749 8.00908 5.55764C7.73431 6.0278 7.9012 6.66619 8.37407 6.94975Z" fill="white"/>
<path d="M12.4092 4.31996C16.5639 6.81316 20.7193 9.30571 24.874 11.7989C26.0531 12.5065 27.2316 13.2135 28.4107 13.9211C28.8822 14.204 29.528 14.0262 29.8028 13.5561C30.0776 13.0859 29.9107 12.4475 29.4378 12.1639C25.2831 9.67071 21.1277 7.17816 16.973 4.68495C15.7939 3.97735 14.6155 3.27043 13.4364 2.56283C12.9649 2.27992 12.319 2.45767 12.0442 2.92782C11.7695 3.39797 11.9364 4.03638 12.4092 4.31996Z" fill="white"/>
<path d="M16.3092 1.89278C20.4808 4.39618 24.6532 6.89888 28.8249 9.40229C30.0223 10.1207 31.2197 10.8392 32.4171 11.5577C32.8886 11.8406 33.5346 11.6628 33.8093 11.1927C34.0841 10.7225 33.9171 10.0841 33.4443 9.80053C29.2726 7.29712 25.1003 4.79442 20.9287 2.29102C19.7312 1.57256 18.5337 0.854096 17.3363 0.135641C16.8648 -0.147264 16.2189 0.0304854 15.9442 0.500637C15.6633 0.980962 15.8363 1.60919 16.3092 1.89278Z" fill="white"/>
<path d="M22.1308 22.3993C26.2597 19.9047 30.388 17.4094 34.5169 14.9148C34.9871 14.6306 35.1621 14.0017 34.8819 13.5227C34.6017 13.0437 33.962 12.8721 33.4898 13.1577C29.3608 15.6523 25.2326 18.1475 21.1037 20.6421C20.6335 20.9264 20.4585 21.5553 20.7387 22.0343C21.0189 22.5132 21.6586 22.6849 22.1308 22.3993Z" fill="white"/>
<path d="M22.1308 27.1808C26.2597 24.6862 30.388 22.191 34.5169 19.6964C34.9871 19.4121 35.1621 18.7832 34.8819 18.3042C34.6017 17.8253 33.962 17.6536 33.4898 17.9392C29.3608 20.4338 25.2326 22.9291 21.1037 25.4237C20.6335 25.7079 20.4585 26.3368 20.7387 26.8158C21.0189 27.2948 21.6586 27.4664 22.1308 27.1808Z" fill="white"/>
<path d="M22.1308 32.0376C26.2597 29.543 30.388 27.0477 34.5169 24.5531C34.9871 24.2689 35.1621 23.64 34.8819 23.161C34.6017 22.682 33.962 22.5104 33.4898 22.796C29.3608 25.2906 25.2326 27.7858 21.1037 30.2804C20.6335 30.5647 20.4585 31.1936 20.7387 31.6726C21.0189 32.1515 21.6586 32.3232 22.1308 32.0376Z" fill="white"/>
<path d="M22.1308 37.0404C26.2597 34.5458 30.388 32.0505 34.5169 29.5559C34.9871 29.2717 35.1621 28.6428 34.8819 28.1638C34.6017 27.6848 33.962 27.5132 33.4898 27.7988C29.3608 30.2934 25.2326 32.7886 21.1037 35.2832C20.6335 35.5675 20.4585 36.1964 20.7387 36.6754C21.0189 37.1543 21.6586 37.326 22.1308 37.0404Z" fill="white"/>
</g>
<defs>
<clipPath id="clip0_110_378">
<rect width="35.0748" height="39.0097" fill="white"/>
</clipPath>
</defs>
</svg>
