<svg width="22" height="22" viewBox="0 0 22 22" fill="none" xmlns="http://www.w3.org/2000/svg">
<path d="M21.9999 10.8419C21.9999 13.7562 21.5115 16.1203 20.9088 16.1203C20.3061 16.1203 19.8179 13.7569 19.8179 10.8419C19.8179 7.92687 20.3063 5.56348 20.9088 5.56348C21.5112 5.56348 21.9999 7.92665 21.9999 10.8419Z" fill="white"/>
<path d="M19.216 10.8418C19.216 14.0954 17.827 16.7339 16.1136 16.7339C14.4002 16.7339 13.0112 14.0954 13.0112 10.8418C13.0112 7.58827 14.4 4.94971 16.1134 4.94971C17.8268 4.94971 19.2158 7.58743 19.2158 10.8418" fill="white"/>
<path d="M12.4093 10.8422C12.4093 14.2987 9.63136 17.1007 6.20477 17.1007C2.77817 17.1007 0 14.2981 0 10.8422C0 7.38636 2.77796 4.5835 6.20477 4.5835C9.63157 4.5835 12.4093 7.38573 12.4093 10.8422Z" fill="white"/>
</svg>
